<?xml version="1.0" encoding="UTF-8"?>
<svg xmlns="http://www.w3.org/2000/svg" version="1.1" viewBox="0 0 90 40">
  <!-- Generator: Adobe Illustrator 28.6.0, SVG Export Plug-In . SVG Version: 1.2.0 Build 709)  -->
  <g>
    <g id="_圖層_2" data-name="圖層_2">
      <path d="M6.1,25.2c.2,0,.4.1.6.4.7.8,1.6,1.4,2.6,1.8,1,.5,2,.7,3,.7s1.6-.3,1.6-1-.2-.9-.6-1.4c-.4-.5-1.3-1.6-2.7-3.1-1.8-2-3-3.4-3.6-4.4-.8-1.3-1.2-2.5-1.2-3.6,0-1.7.8-3.1,2.3-4.2,1.5-1.1,3.4-1.6,5.6-1.6s3,.3,4.2.9c.5.2.9.5,1.3.8s.5.6.5.8,0,.2-.1.3c0,0-.2.1-.3.1-.2,0-.4-.1-.7-.4-.5-.5-1.2-.9-2-1.2-.8-.3-1.6-.5-2.4-.5s-.8.1-1.1.3-.4.5-.4.8.2.9.5,1.4,1,1.3,1.8,2.2c2.7,2.9,4.4,4.9,5,5.9.6,1.1,1,2.1,1,3.1s-.2,1.7-.7,2.4-1.1,1.4-1.9,1.9c-1.6.9-3.4,1.4-5.7,1.4s-3.9-.5-5.4-1.6c-1.1-.7-1.6-1.3-1.6-1.8s0-.2,0-.3c0,0,.2-.1.3-.1Z"/>
      <path d="M30.6,15.1c.9-.6,1.6-1.1,2.2-1.3,1.4-.7,2.8-1,4.2-1s1.9.2,2.7.5,1.4.8,1.8,1.5c.5.7.7,2.1.7,4.1v9.7c0,0-7.1,0-7.1,0v-13.1c0-.5-.4-.7-1-.7s-.9.1-1.5.4c-.5.3-1.1.7-1.8,1.2v12.2h-7.2V9.6h7.1v5.8-.3Z"/>
      <path d="M55.1,19.1v-3.9c0-.3,0-.5-.3-.7-.3-.5-1.1-.8-2.4-.8-1.9,0-3.4.6-4.4,1.8-.4.5-.8.7-1.1.7s-.4,0-.6-.2c-.2-.1-.2-.3-.2-.5,0-.6.7-1.2,2.1-1.8,1.3-.6,3-.9,5.1-.9,3.5,0,5.9.5,7.3,1.6.6.5,1,1,1.2,1.5.2.6.3,1.6.3,3v7.9c0,.5.3,1.1.7,1.7h-7.8v-1.5c-.9.6-1.7,1-2.6,1.3s-1.7.4-2.5.4c-1.4,0-2.6-.4-3.7-1.2-1.4-1.1-2.1-2.4-2.1-4.1s.6-2.7,1.7-3.6c1.3-1.1,3-1.6,4.9-1.6s1.5,0,2.1.2c.6.1,1.3.4,2.1.8h.2ZM55.1,20.1c-1.2-.6-2.1-.9-2.7-.9s-.9.2-1.1.6c0,.2,0,.9,0,2v4.6c0,.4.4.6,1,.6s.9-.1,1.4-.4,1-.6,1.5-1v-5.7.2Z"/>
      <path d="M72.5,13.2v1.9c1.1-.8,2.2-1.4,3.2-1.7s2.1-.6,3.1-.6,2.4.3,3.4.9c.7.5,1.2,1,1.4,1.7s.4,1.8.4,3.3v9.8h-7.1v-12.9c0-.2,0-.4,0-.5,0-.3-.5-.4-1-.4s-1,.1-1.5.4c-.5.3-1.1.7-1.7,1.2v12.2h-7.1v-15.2h7.2-.2Z"/>
    </g>
  </g>
</svg>